<svg width="50" height="45" viewBox="0 0 50 45" fill="none" xmlns="http://www.w3.org/2000/svg">
<path fill-rule="evenodd" clip-rule="evenodd" d="M25 15.9375C22.9288 15.9375 21.25 14.5106 21.25 12.75C21.25 10.9894 22.9288 9.5625 25 9.5625C27.0712 9.5625 28.75 10.9894 28.75 12.75C28.75 14.5106 27.0712 15.9375 25 15.9375ZM25 7.4375C21.5488 7.4375 18.75 9.81537 18.75 12.75C18.75 15.6846 21.5488 18.0625 25 18.0625C28.4512 18.0625 31.25 15.6846 31.25 12.75C31.25 9.81537 28.4512 7.4375 25 7.4375ZM25 30.8125C22.9213 30.8221 12.5 17.1923 12.5 12.75C12.5 6.88287 18.0963 2.125 25 2.125C31.9037 2.125 37.5 6.88287 37.5 12.75C37.5 17.1328 27.0462 30.8221 25 30.8125ZM25 0C16.7163 0 10 5.70881 10 12.75C10 18.0816 22.5062 34.0117 25 34C27.455 34.0117 40 18.0094 40 12.75C40 5.70881 33.2837 0 25 0Z" fill="white"/>
</svg>
