<svg width="40" height="35" viewBox="0 0 40 35" fill="none" xmlns="http://www.w3.org/2000/svg">
<path fill-rule="evenodd" clip-rule="evenodd" d="M20 16.3724C17.2383 16.3724 15 14.9065 15 13.0979C15 11.2893 17.2383 9.82345 20 9.82345C22.7617 9.82345 25 11.2893 25 13.0979C25 14.9065 22.7617 16.3724 20 16.3724ZM20 7.64046C15.3983 7.64046 11.6667 10.0832 11.6667 13.0979C11.6667 16.1126 15.3983 18.5554 20 18.5554C24.6017 18.5554 28.3333 16.1126 28.3333 13.0979C28.3333 10.0832 24.6017 7.64046 20 7.64046ZM20 31.6533C17.2283 31.6632 3.33333 17.6615 3.33333 13.0979C3.33333 7.0707 10.795 2.18299 20 2.18299C29.205 2.18299 36.6667 7.0707 36.6667 13.0979C36.6667 17.6003 22.7283 31.6632 20 31.6533ZM20 0C8.955 0 0 5.8646 0 13.0979C0 18.5751 16.675 34.9398 20 34.9278C23.2733 34.9398 40 18.5008 40 13.0979C40 5.8646 31.045 0 20 0Z" fill="white"/>
</svg>
